<svg width="92" height="47" viewBox="0 0 92 47" fill="none" xmlns="http://www.w3.org/2000/svg">
<path d="M24.9782 46.896C21.3942 46.896 18.0876 46.32 15.0582 45.168C12.0289 44.016 9.38358 42.3947 7.12225 40.304C4.90358 38.1707 3.17558 35.696 1.93825 32.88C0.700913 30.064 0.0822463 26.9707 0.0822463 23.6C0.0822463 20.2293 0.700913 17.136 1.93825 14.32C3.17558 11.504 4.90358 9.05066 7.12225 6.96C9.38358 4.82667 12.0289 3.184 15.0582 2.032C18.0876 0.879997 21.3942 0.303997 24.9782 0.303997C28.6049 0.303997 31.9116 0.879997 34.8982 2.032C37.9276 3.184 40.5516 4.82667 42.7702 6.96C44.9889 9.05066 46.7169 11.504 47.9543 14.32C49.2342 17.136 49.8742 20.2293 49.8742 23.6C49.8742 26.9707 49.2342 30.0853 47.9543 32.944C46.7169 35.76 44.9889 38.2133 42.7702 40.304C40.5516 42.3947 37.9276 44.016 34.8982 45.168C31.9116 46.32 28.6049 46.896 24.9782 46.896ZM24.9782 36.4C26.6849 36.4 28.2636 36.1013 29.7142 35.504C31.2076 34.9067 32.4876 34.0533 33.5542 32.944C34.6636 31.792 35.5169 30.4267 36.1142 28.848C36.7542 27.2693 37.0742 25.52 37.0742 23.6C37.0742 21.6373 36.7542 19.888 36.1142 18.352C35.5169 16.7733 34.6636 15.4293 33.5542 14.32C32.4876 13.168 31.2076 12.2933 29.7142 11.696C28.2636 11.0987 26.6849 10.8 24.9782 10.8C23.2716 10.8 21.6716 11.0987 20.1782 11.696C18.7276 12.2933 17.4476 13.168 16.3382 14.32C15.2716 15.4293 14.4182 16.7733 13.7782 18.352C13.1809 19.888 12.8822 21.6373 12.8822 23.6C12.8822 25.52 13.1809 27.2693 13.7782 28.848C14.4182 30.4267 15.2716 31.792 16.3382 32.944C17.4476 34.0533 18.7276 34.9067 20.1782 35.504C21.6716 36.1013 23.2716 36.4 24.9782 36.4ZM68.2872 20.848H88.9592V30.64H68.2872V20.848ZM69.1832 46H56.5112V1.2H91.6472V10.992H69.1832V46Z" fill="white"/>
</svg>
